# xmcd
# 
# Track frame offsets:
#   150
#   16220
#   39705
#   60070
#   75412
#   91560
#   107807
#   121500
#   140095
#   159347
#   176640
#   195695
#   214685
#   233515
#   249982
# 
# Disc length: 3530 seconds
# 
# Revision: 0
# Processed by: cddbd v1.5.1PL2 Copyright (c) Steve Scherf et al.
# Submitted via: Synapstar 1.0 
# 
DISCID=ab0dc80f
DTITLE=Various Artist - mm music maestro
DYEAR=1900
DGENRE=Country
TTITLE0=tim mcgraw - the cowboy in me
TTITLE1=alan jackson - where were you (when the world stoped)
TTITLE2=martina mcbride - blessed
TTITLE3=blake shelton - all over me
TTITLE4=phil vassar - that's when i love you
TTITLE5=lee ann womack - does my ring burn your finger
TTITLE6=emerson drive - i should be sleeping
TTITLE7=daisy dere - gettin-back to you
TTITLE8=mark mcguinn - she doesn't dance
TTITLE9=carolyn dawn johnson - i don't wan't you to go
TTITLE10=kevin denney - that's just jesse
TTITLE11=tim mcgraw - angel boy
TTITLE12=kelley coffey - when you lie next to me
TTITLE13=tammy cochran - i cry
TTITLE14=chelly wright - jezebel 
EXTD=MediaType: Karaoke CD+G Producer: Music Maestro
EXTT0=
EXTT1=
EXTT2=
EXTT3=
EXTT4=
EXTT5=
EXTT6=
EXTT7=
EXTT8=
EXTT9=
EXTT10=
EXTT11=
EXTT12=
EXTT13=
EXTT14=
PLAYORDER=
